Coordinates
version=1
nRows=19
nColumns=33
inDegrees=yes

Units are S.I. units (second, meters, Newtons, ...)
Angles are in degrees.

endheader
time	ground_thorax_rot_x	ground_thorax_rot_y	ground_thorax_rot_z	ground_thorax_tx	ground_thorax_ty	ground_thorax_tz	clav_prot_r	clav_elev_r	scapula_abduction_r	scapula_elevation_r	scapula_upward_rot_r	scapula_winging_r	shoulder_elv_r	plane_of_elev_r	axial_rot_r	elbow_flexion_r	pro_sup_r	wrist_flex_r	wrist_dev_r	clav_prot_l	clav_elev_l	scapula_abduction_l	scapula_elevation_l	scapula_upward_rot_l	scapula_winging_l	shoulder_elv_l	plane_of_elev_l	axial_rot_l	elbow_flexion_l	pro_sup_l	wrist_flex_l	wrist_dev_l	
6.8600	31.340513	23.138067	33.875236	-69.083880	861.396950	-48.387386	13.249048	33.934638	26.695994	45.000000	-45.000000	2069.596617	74.112886	21.830177	-161.837454	1078.807385	-195.658546	16.811893	13.180660	-6.478339	-45.000000	-40.694512	45.000000	-45.000000	5147.252499	-2606.769362	134.364640	-127.960575	1430.839509	404.931917	13.096544	-22.570149	
6.8700	31.356072	23.236152	33.936326	-68.749047	861.082632	-48.288995	13.185013	33.903445	26.656099	45.000000	-45.000000	2069.663850	74.069892	21.820390	-161.876312	1078.766305	-195.467565	16.864823	13.212404	-6.455571	-45.000000	-40.671127	45.000000	-45.000000	5147.268958	-2606.856795	134.390013	-128.033427	1430.841906	404.993599	13.085227	-22.700610	
6.8800	31.333725	23.376185	34.045064	-68.364973	860.736667	-48.187917	13.101505	33.888230	26.559876	45.000000	-45.000000	2069.747525	74.040082	21.810058	-161.946148	1078.732980	-195.294891	16.986948	13.204254	-6.446376	-45.000000	-40.663120	45.000000	-45.000000	5147.277996	-2606.929483	134.408858	-128.110839	1430.795791	405.029272	12.953531	-22.819098	
6.8900	31.328872	23.502618	34.138412	-67.880365	860.320094	-48.079362	13.057627	33.875350	26.501399	45.000000	-45.000000	2069.828860	73.997293	21.801541	-162.022864	1078.707464	-195.109654	17.073594	13.212346	-6.452122	-45.000000	-40.635343	45.000000	-45.000000	5147.269622	-2607.005183	134.420825	-128.140482	1430.768611	405.063312	12.886743	-22.924944	
6.9000	31.319209	23.635768	34.245378	-67.279544	859.830882	-47.965046	13.031421	33.861939	26.455904	45.000000	-45.000000	2069.910247	73.945722	21.792793	-162.122510	1078.679063	-194.932269	17.142905	13.225646	-6.466014	-45.000000	-40.600923	45.000000	-45.000000	5147.244752	-2607.075101	134.431089	-128.133250	1430.740563	405.082642	12.857552	-23.017282	
6.9100	31.305547	23.775164	34.363011	-66.539367	859.262259	-47.845981	13.015618	33.856502	26.416144	45.000000	-45.000000	2069.997986	73.888564	21.786859	-162.251016	1078.650444	-194.782718	17.216238	13.240904	-6.491120	-45.000000	-40.562047	45.000000	-45.000000	5147.209086	-2607.146094	134.427320	-128.087356	1430.705193	405.069980	12.815219	-23.090344	
6.9200	31.283464	23.921145	34.499555	-65.646622	858.617775	-47.724467	13.005008	33.845476	26.389584	45.000000	-45.000000	2070.086035	73.821987	21.783766	-162.413962	1078.608047	-194.678737	17.262636	13.269563	-6.514514	-45.000000	-40.520731	45.000000	-45.000000	5147.161076	-2607.212408	134.420622	-127.998983	1430.674133	405.026128	12.820439	-23.147710	
6.9300	31.251958	24.074074	34.652584	-64.593991	857.905774	-47.602670	12.982150	33.841429	26.363683	45.000000	-45.000000	2070.183820	73.750996	21.786024	-162.620244	1078.557642	-194.652064	17.313905	13.304919	-6.538605	-45.000000	-40.482520	45.000000	-45.000000	5147.112604	-2607.280040	134.395739	-127.871720	1430.636500	404.931743	12.796950	-23.186306	
6.9400	31.212786	24.229353	34.821345	-63.376602	857.134583	-47.481575	12.950287	33.828948	26.352177	45.000000	-45.000000	2070.287290	73.671533	21.794111	-162.870143	1078.493819	-194.717272	17.325611	13.362581	-6.550938	-45.000000	-40.446351	45.000000	-45.000000	5147.058384	-2607.344143	134.364921	-127.696629	1430.612444	404.797849	12.825890	-23.211688	
6.9500	31.166014	24.389088	35.003804	-61.993256	856.312747	-47.361132	12.900401	33.824133	26.348577	45.000000	-45.000000	2070.405516	73.585145	21.806222	-163.169298	1078.432138	-194.899025	17.328274	13.432706	-6.559908	-45.000000	-40.414287	45.000000	-45.000000	5147.004924	-2607.409087	134.313962	-127.475247	1430.588122	404.614161	12.832477	-23.221391	
6.9600	31.106887	24.556103	35.209986	-60.446685	855.448955	-47.240746	12.841716	33.817909	26.364383	45.000000	-45.000000	2070.530946	73.485214	21.820029	-163.515279	1078.369911	-195.205212	17.290289	13.520548	-6.563156	-45.000000	-40.384139	45.000000	-45.000000	5146.943129	-2607.463240	134.259544	-127.204509	1430.570438	404.397813	12.878046	-23.221086	
6.9700	31.037822	24.732321	35.434973	-58.743833	854.552274	-47.119913	12.769587	33.815616	26.392664	45.000000	-45.000000	2070.672789	73.378268	21.829370	-163.904784	1078.313606	-195.641121	17.232544	13.622996	-6.562715	-45.000000	-40.363468	45.000000	-45.000000	5146.878550	-2607.516954	134.194633	-126.894055	1430.549751	404.151490	12.910285	-23.207633	
6.9800	30.957383	24.920133	35.681595	-56.894924	853.631993	-46.998762	12.699113	33.811925	26.431820	45.000000	-45.000000	2070.822224	73.265835	21.842455	-164.329489	1078.258569	-196.197168	17.136469	13.742121	-6.562249	-45.000000	-40.350142	45.000000	-45.000000	5146.801287	-2607.563067	134.132455	-126.545715	1430.531949	403.894324	12.968675	-23.183237	
6.9900	30.872098	25.115292	35.940926	-54.912794	852.697856	-46.878337	12.640544	33.816216	26.483410	45.000000	-45.000000	2070.975617	73.149908	21.861442	-164.780460	1078.205026	-196.861598	17.018395	13.872492	-6.574039	-45.000000	-40.336227	45.000000	-45.000000	5146.712417	-2607.603550	134.065975	-126.164422	1430.511998	403.632227	13.021652	-23.147170	
7.0000	30.795090	25.306450	36.202311	-52.811546	851.759860	-46.760527	12.626143	33.839580	26.561075	45.000000	-45.000000	2071.108469	73.026760	21.909215	-165.242497	1078.146364	-197.621130	16.872241	14.008375	-6.621438	-45.000000	-40.292120	45.000000	-45.000000	5146.602015	-2607.617838	133.994203	-125.745823	1430.487301	403.378538	13.093802	-23.104432	
7.0100	30.729288	25.486515	36.458854	-50.604730	850.827711	-46.647683	12.662750	33.886263	26.669026	45.000000	-45.000000	2071.220602	72.897597	21.982183	-165.706447	1078.081101	-198.460416	16.706625	14.146479	-6.713484	-45.000000	-40.215738	45.000000	-45.000000	5146.470871	-2607.609262	133.915548	-125.292049	1430.454563	403.137537	13.171251	-23.052560	
7.0200	30.675888	25.651725	36.708730	-48.304709	849.910274	-46.542189	12.750829	33.956761	26.810480	45.000000	-45.000000	2071.308329	72.762402	22.083618	-166.169979	1078.008725	-199.359650	16.520805	14.284549	-6.849888	-45.000000	-40.106530	45.000000	-45.000000	5146.319938	-2607.574237	133.830638	-124.804056	1430.414241	402.911843	13.262591	-22.988142	
7.0300	30.624839	25.808109	36.957110	-45.921556	849.014486	-46.446019	12.857914	34.036066	26.971966	45.000000	-45.000000	2071.387255	72.627769	22.198269	-166.641894	1077.931368	-200.282615	16.316941	14.423540	-6.995714	-45.000000	-39.986953	45.000000	-45.000000	5146.161395	-2607.526296	133.738955	-124.294138	1430.372084	402.699758	13.367149	-22.906932	
7.0400	30.574021	25.961836	37.207687	-43.463311	848.144424	-46.360477	12.969498	34.118144	27.145947	45.000000	-45.000000	2071.461295	72.498766	22.323705	-167.129147	1077.852271	-201.189839	16.098686	14.560357	-7.135436	-45.000000	-39.864736	45.000000	-45.000000	5146.001192	-2607.465599	133.637919	-123.767620	1430.329609	402.498578	13.488251	-22.805411	
